<svg xmlns="http://www.w3.org/2000/svg" xmlns:xlink="http://www.w3.org/1999/xlink" width="333" height="71" viewBox="0 0 333 71">
  <defs>
    <clipPath id="clip-path">
      <rect id="Rectangle_1" data-name="Rectangle 1" width="333" height="71" transform="translate(596 504)" fill="#fff" stroke="#707070" stroke-width="1"/>
    </clipPath>
  </defs>
  <g id="Mask_Group_1" data-name="Mask Group 1" transform="translate(-596 -504)" clip-path="url(#clip-path)">
    <g id="logo" transform="translate(595.964 574.841)">
      <path id="Path_1" data-name="Path 1" d="M253.295-70.637a34.755,34.755,0,0,0-5.377.643,33.754,33.754,0,0,0-6.394,1.94c-.247.1-.5.211-1.344.592-.788.352-2.481,1.257-3.252,1.733-.1.062-.229.142-.291.174-.207.116-1.384.9-1.817,1.21a33.286,33.286,0,0,0-3,2.405,9.625,9.625,0,0,0-1.751,1.795,1.884,1.884,0,0,0-.225.963,1.851,1.851,0,0,0,.229.963,1.975,1.975,0,0,0,1.3,1,1.8,1.8,0,0,0,1.054-.022,2.4,2.4,0,0,0,1.177-.8,30.032,30.032,0,0,1,5.3-4.123,32.7,32.7,0,0,1,4.2-2.136l.563-.225a31.359,31.359,0,0,1,6.162-1.671c.276-.04.654-.1.832-.127.581-.094,1.933-.2,2.99-.236a32.847,32.847,0,0,1,5.046.236,30.889,30.889,0,0,1,4.45.941c.6.174,2.093.668,2.154.712a2.6,2.6,0,0,0,.272.109,31.009,31.009,0,0,1,5.468,2.772,30.579,30.579,0,0,1,4.668,3.713,2.634,2.634,0,0,0,1.112.807,2.187,2.187,0,0,0,1.268.022,2,2,0,0,0,1.381-1.53,1.619,1.619,0,0,0-.018-.872c-.131-.545-.28-.756-1.043-1.482a34.115,34.115,0,0,0-9.039-6.234c-1-.472-2.129-.945-2.852-1.2-.171-.058-.341-.12-.381-.142-.163-.08-1.66-.549-2.38-.745a34.221,34.221,0,0,0-9.192-1.21C253.978-70.652,253.4-70.644,253.295-70.637Z" fill="#ff4800"/>
      <path id="Path_2" data-name="Path 2" d="M252.8-61.177a23.789,23.789,0,0,0-2.489.312,25.43,25.43,0,0,0-5.45,1.617c-.44.185-1.991.952-2.4,1.184a24.164,24.164,0,0,0-2.743,1.8c-.592.447-1.072.843-1.693,1.4-1.035.934-1.341,1.3-1.471,1.787a2.728,2.728,0,0,0,0,1.112,2.031,2.031,0,0,0,2.489,1.391,2,2,0,0,0,.981-.6c.538-.5.843-.781,1.072-.981.12-.1.28-.24.363-.309.138-.116.592-.469,1.01-.777a21.312,21.312,0,0,1,3.713-2.154,20.869,20.869,0,0,1,10.954-1.646c.349.04.727.087.836.109s.389.073.618.113c.465.08,1.533.342,2.089.509a21.087,21.087,0,0,1,4.959,2.242,21.222,21.222,0,0,1,3.433,2.678c.629.585.8.7,1.217.814a2.022,2.022,0,0,0,2.122-.687,1.682,1.682,0,0,0,.352-.69,2.066,2.066,0,0,0-.225-1.657,5.686,5.686,0,0,0-.607-.672,24.685,24.685,0,0,0-5.13-3.822c-.436-.243-1.791-.916-2.143-1.064-.915-.378-1.188-.483-1.835-.708A24.994,24.994,0,0,0,252.8-61.177Z" fill="#ff4800"/>
      <path id="Path_3" data-name="Path 3" d="M253.513-52.109c-.229.015-1.439.174-1.762.233a18.048,18.048,0,0,0-2.561.712,15.751,15.751,0,0,0-5.54,3.517,2.167,2.167,0,0,0-.5.643,1.841,1.841,0,0,0-.2,1.05,1.264,1.264,0,0,0,.167.7,1.927,1.927,0,0,0,1.072,1.046,1.543,1.543,0,0,0,.687.131,1.615,1.615,0,0,0,.618-.047,2.271,2.271,0,0,0,1.032-.643,11.5,11.5,0,0,1,4.214-2.627,11.258,11.258,0,0,1,3.727-.661,11.237,11.237,0,0,1,4.094.647,11.614,11.614,0,0,1,4.163,2.543,2.513,2.513,0,0,0,.894.658,1.354,1.354,0,0,0,.759.116,1.43,1.43,0,0,0,.741-.1,2.049,2.049,0,0,0,1.017-.861,1.63,1.63,0,0,0,.254-1.054c-.007-.868-.193-1.152-1.5-2.285a15.492,15.492,0,0,0-4.523-2.7c-.16-.058-.323-.124-.363-.145a19.366,19.366,0,0,0-2.536-.665c-.458-.08-1.112-.163-1.569-.2C255.547-52.13,253.942-52.134,253.513-52.109Z" fill="#ff4800"/>
      <path id="Path_4" data-name="Path 4" d="M254.065-40.872a4.626,4.626,0,0,0-2.5,1.188,4.539,4.539,0,0,0-1.435,3.342,4.56,4.56,0,0,0,3.273,4.331,3.939,3.939,0,0,0,1.413.167,3.4,3.4,0,0,0,.963-.127,5.2,5.2,0,0,0,1.428-.629,5.076,5.076,0,0,0,1.46-1.606,5.625,5.625,0,0,0,.461-1.286,6.175,6.175,0,0,0,0-1.755,4.767,4.767,0,0,0-.81-1.827,4.582,4.582,0,0,0-2.648-1.726A6.429,6.429,0,0,0,254.065-40.872Z" fill="#ff4800"/>
      <path id="Path_5" data-name="Path 5" d="M33.406-36.381a2.762,2.762,0,0,0-1.028.545,2.436,2.436,0,0,0-.843,1.853,2.4,2.4,0,0,0,.454,1.486,2.42,2.42,0,0,0,2.031,1.035,2.3,2.3,0,0,0,1.188-.276A2.575,2.575,0,0,0,36.359-33a3.407,3.407,0,0,0,.189-.948,3.41,3.41,0,0,0-.214-1.014,2.592,2.592,0,0,0-1.7-1.421A3.739,3.739,0,0,0,33.406-36.381Z" fill="#ff4800"/>
      <path id="Path_6" data-name="Path 6" d="M72.424-36.418a2.544,2.544,0,0,0-1.678,1.163,2.934,2.934,0,0,0-.233.523,1.814,1.814,0,0,0-.12.763,1.831,1.831,0,0,0,.113.781,2.552,2.552,0,0,0,1.635,1.638,3.624,3.624,0,0,0,1.333.036,2.538,2.538,0,0,0,1.773-1.573,1.844,1.844,0,0,0,.127-.763,1.686,1.686,0,0,0-.08-.8,2.227,2.227,0,0,0-.385-.8,2.634,2.634,0,0,0-1.413-.941A4.657,4.657,0,0,0,72.424-36.418Z" fill="#ff4800"/>
      <path id="Path_7" data-name="Path 7" d="M122.608-21.417l.007,14.8h4.868V-36.221H122.6Z" fill="#ff4800"/>
      <path id="Path_8" data-name="Path 8" d="M.036-20.817V-6.612h5.7c3.262,0,5.911-.015,6.2-.036a19.039,19.039,0,0,0,3.615-.639,14.373,14.373,0,0,0,6.194-3.626,13.526,13.526,0,0,0,3.648-6.652,18.233,18.233,0,0,0,.367-3.3,17.776,17.776,0,0,0-.327-3.1,12.789,12.789,0,0,0-.378-1.4,11.623,11.623,0,0,0-.727-1.8A13.31,13.31,0,0,0,19.2-32.752a16.231,16.231,0,0,0-6.83-2.205c-.247-.029-2.256-.044-6.347-.054L.036-35.026ZM12.3-30.4a9.413,9.413,0,0,1,6.173,3.382,9.268,9.268,0,0,1,1.751,3.6,10.982,10.982,0,0,1-.668,7.135,8.61,8.61,0,0,1-1.569,2.267,9.287,9.287,0,0,1-4.846,2.619c-1.079.236-1.213.243-4.759.262-1.755.011-3.23.007-3.277,0l-.087-.022V-30.485l3.444.015C11.433-30.459,11.953-30.448,12.3-30.4Z" fill="#ff4800"/>
      <path id="Path_9" data-name="Path 9" d="M134.967-20.654V-6.43h21.689v-6.9H142.887V-34.877h-7.92Z"/>
      <path id="Path_10" data-name="Path 10" d="M234.5-33.98c-.015.011-.025,1.272-.025,2.8v2.772H231.86V-22.2h2.616l0,4.8c0,2.645.007,4.912.018,5.043a7.871,7.871,0,0,0,1.163,3.8,5.612,5.612,0,0,0,1.991,1.726,8.109,8.109,0,0,0,2.158.683,15.015,15.015,0,0,0,4.251-.022,10.638,10.638,0,0,0,3-.981l.171-.094V-13.3l-.091.036c-.051.018-.134.058-.193.087a10.791,10.791,0,0,1-1.224.418c-.16.04-.483.1-.719.131-1.49.193-2.336-.174-2.67-1.159l-.1-.294-.011-4.062-.011-4.058h5.126V-28.41h-5.123l-.007-2.79-.011-2.787L238.36-34C236.252-34,234.512-33.994,234.5-33.98Z"/>
      <path id="Path_11" data-name="Path 11" d="M82.8-30.99v2.943H80.072v4.214H82.8v5.965c0,3.695.015,6.129.036,6.387a8.96,8.96,0,0,0,.407,1.9,4.654,4.654,0,0,0,3.528,3.092,7.087,7.087,0,0,0,1.846.225,11.015,11.015,0,0,0,2.064-.116,8.716,8.716,0,0,0,2.311-.756l.363-.189.011-2.013a10.73,10.73,0,0,0-.036-1.973,7.51,7.51,0,0,1-1.359.5,5.97,5.97,0,0,1-1.827.189,2.575,2.575,0,0,1-1.257-.28,1.947,1.947,0,0,1-.792-.694,3.161,3.161,0,0,1-.385-1.177c-.025-.225-.04-2.009-.04-5.7v-5.366h5.777v-4.214H87.665l.007-2.943.011-2.943H82.8Z" fill="#ff4800"/>
      <path id="Path_12" data-name="Path 12" d="M169.572-28.883a12.415,12.415,0,0,0-7.357,2.928,11.372,11.372,0,0,0-3.52,5.5,11.575,11.575,0,0,0,.294,7.084,14.5,14.5,0,0,0,.988,1.991,12.067,12.067,0,0,0,10.43,5.471,12.6,12.6,0,0,0,7.012-2.027,12.077,12.077,0,0,0,3.059-2.91,11.428,11.428,0,0,0,1.9-4.4,11.287,11.287,0,0,0-2.18-9.17,14.227,14.227,0,0,0-1.584-1.635,12.247,12.247,0,0,0-6.6-2.776A18.214,18.214,0,0,0,169.572-28.883Zm1.62,6.6a4.527,4.527,0,0,1,1.1.338,5.182,5.182,0,0,1,2.481,6.361,4.485,4.485,0,0,1-2.794,2.885,4.3,4.3,0,0,1-1.664.229,3.987,3.987,0,0,1-1.348-.236,4.8,4.8,0,0,1-3.052-3.586,7.2,7.2,0,0,1-.076-1.835,4.678,4.678,0,0,1,2.7-3.858,6.192,6.192,0,0,1,1.152-.331A7.659,7.659,0,0,1,171.192-22.285Z"/>
      <path id="Path_13" data-name="Path 13" d="M273.277-28.883a12.424,12.424,0,0,0-7.357,2.91,11.323,11.323,0,0,0-2.772,3.539,11.4,11.4,0,0,0-.708,8.371,11.319,11.319,0,0,0,2.005,3.782,14.3,14.3,0,0,0,1.657,1.66,12.2,12.2,0,0,0,5.722,2.532,11.826,11.826,0,0,0,2.271.182,12.471,12.471,0,0,0,8.12-2.852,11.3,11.3,0,0,0,3.96-7.153,13.113,13.113,0,0,0-.018-3.179,11.027,11.027,0,0,0-3.259-6.394,11.84,11.84,0,0,0-6.223-3.193A15.287,15.287,0,0,0,273.277-28.883Zm1.6,6.6a4.345,4.345,0,0,1,1.718.694,4.965,4.965,0,0,1,2.125,3.782,5.414,5.414,0,0,1-.821,3.382,5.724,5.724,0,0,1-1.155,1.192,4.676,4.676,0,0,1-3.324.719,4.645,4.645,0,0,1-3.68-3.27,4.369,4.369,0,0,1-.222-1.708,4.547,4.547,0,0,1,.084-1.144,4.643,4.643,0,0,1,1.308-2.438,4.075,4.075,0,0,1,2.252-1.2A5.893,5.893,0,0,1,274.879-22.285Z"/>
      <path id="Path_14" data-name="Path 14" d="M303.176-28.883a7.45,7.45,0,0,0-3.27,1.064,11.365,11.365,0,0,0-2.383,2.129l-.251.309-.011-1.515-.007-1.515h-7.738V-6.43h7.738v-6.133c0-6.794-.007-6.576.236-7.3a2.978,2.978,0,0,1,2.078-2.053,2.7,2.7,0,0,1,.919-.084,2.835,2.835,0,0,1,.934.084,2.783,2.783,0,0,1,1.421.977,3.645,3.645,0,0,1,.665,1.675c.065.4.069.636.069,6.623V-6.43h7.738v-7.5c0-6.478-.007-7.579-.055-8.04a9.232,9.232,0,0,0-.3-1.678,6.632,6.632,0,0,0-4.24-4.792,8.586,8.586,0,0,0-1.584-.381A12.023,12.023,0,0,0,303.176-28.883Z"/>
      <path id="Path_15" data-name="Path 15" d="M195.875-28.843a11.893,11.893,0,0,0-6.7,2.529,14.873,14.873,0,0,0-1.569,1.537,11.168,11.168,0,0,0-2.3,4.5,11.391,11.391,0,0,0-.345,2.9,11.522,11.522,0,0,0,.89,4.545,13.23,13.23,0,0,0,1.6,2.688,16.98,16.98,0,0,0,1.777,1.766,11.821,11.821,0,0,0,8.61,2.409,12.8,12.8,0,0,0,3.015-.636,11.141,11.141,0,0,0,3-1.675,12.481,12.481,0,0,0,1.962-2.064c.4-.534.443-.6.411-.632s-1.755-1.275-3.357-2.434c-.291-.207-.788-.57-1.108-.8s-.6-.432-.625-.447-.225.156-.545.487a5.246,5.246,0,0,1-2.7,1.653,6.693,6.693,0,0,1-1.769.036,4.321,4.321,0,0,1-3.364-3.092,5.1,5.1,0,0,1-.258-1.889,4.614,4.614,0,0,1,.3-1.9,4.438,4.438,0,0,1,2.983-2.874,5.3,5.3,0,0,1,1.922-.04A4.746,4.746,0,0,1,200.7-20.28a2.5,2.5,0,0,0,.189.225c.011,0,.527-.381,1.152-.846s1.595-1.188,2.154-1.6a15.064,15.064,0,0,0,1.907-1.46,5.624,5.624,0,0,0-.6-.886,9.971,9.971,0,0,0-6.318-3.807A13.694,13.694,0,0,0,195.875-28.843Z"/>
      <path id="Path_16" data-name="Path 16" d="M322.613-28.846a9.753,9.753,0,0,0-5.4,1.849,7.008,7.008,0,0,0-1.708,2,7.315,7.315,0,0,0-.727,2.187,11.7,11.7,0,0,0,0,2.445c.371,2.242,1.769,3.757,4.5,4.865a26.388,26.388,0,0,0,2.757.9,19.584,19.584,0,0,1,3.106,1,1.571,1.571,0,0,1,.792.636.684.684,0,0,1,.091.472c-.033.53-.276.814-.865,1.006a2.813,2.813,0,0,1-1.181.1,7.865,7.865,0,0,1-2.053-.2,15.346,15.346,0,0,1-5.039-2.06,3.568,3.568,0,0,0-.334-.2q-.044-.016-1.384,2.169c-.134.218-.534.865-.883,1.431a11.418,11.418,0,0,0-.621,1.064,13.252,13.252,0,0,0,1.159.763,17.767,17.767,0,0,0,7.39,2.391,15.962,15.962,0,0,0,5.075-.269,7.18,7.18,0,0,0,4.963-3.549,7.763,7.763,0,0,0,.621-4.992,4.992,4.992,0,0,0-1.333-2.481,7.533,7.533,0,0,0-2.231-1.58,23.1,23.1,0,0,0-4.2-1.515c-2.267-.658-3.132-1.064-3.375-1.58a1.018,1.018,0,0,1,.007-.767c.265-.523,1.09-.77,2.205-.668a15.125,15.125,0,0,1,5.359,1.675,3.849,3.849,0,0,0,.658.294c.014-.015.243-.436.512-.934,1.4-2.579,1.933-3.575,2.013-3.713a.867.867,0,0,0,.087-.182,12.946,12.946,0,0,0-2.652-1.37,18.585,18.585,0,0,0-4.777-1.134c-.178-.011-.367-.029-.418-.033C324.441-28.861,323-28.872,322.613-28.846Z"/>
      <path id="Path_17" data-name="Path 17" d="M216.946-28.7c-.763.058-.959.076-1.417.131a21.131,21.131,0,0,0-4.523,1.05c-.53.185-1.206.447-1.235.48a2.127,2.127,0,0,0,.109.483c.142.465.265.89.563,1.907.091.32.222.77.291,1s.189.654.272.945.193.661.243.825l.087.3.243-.094a16.5,16.5,0,0,1,4.214-1.05,15.235,15.235,0,0,1,2.768,0,3.478,3.478,0,0,1,2.87,1.827,3.187,3.187,0,0,1,.316,1.453,4.327,4.327,0,0,1,0,.556,2.338,2.338,0,0,1-.233-.076,19.266,19.266,0,0,0-3.066-.647,16.119,16.119,0,0,0-4.523.109,8.544,8.544,0,0,0-3.742,1.577,6.637,6.637,0,0,0-1.228,1.312,6.624,6.624,0,0,0-1.079,3.84,6.291,6.291,0,0,0,3.226,5.849,9.447,9.447,0,0,0,6.856.618,8.138,8.138,0,0,0,3.517-2.111l.243-.254V-6.43h7.669l-.015-7c-.011-6.874-.015-7.012-.087-7.546a10.868,10.868,0,0,0-.629-2.6,7.661,7.661,0,0,0-5-4.476,15.378,15.378,0,0,0-5.159-.672C217.851-28.73,217.146-28.715,216.946-28.7ZM220-15.9a7.876,7.876,0,0,1,1.439.338l.414.138,0,.781a3.755,3.755,0,0,1-.1,1.17,3.209,3.209,0,0,1-1.115,1.817,3.652,3.652,0,0,1-1.889.81,3.122,3.122,0,0,1-2.765-.708,2.139,2.139,0,0,1-.65-1.638,2.587,2.587,0,0,1,.185-1.05A2.966,2.966,0,0,1,218-15.913c.182-.022.352-.047.381-.054A11.676,11.676,0,0,1,220-15.9Z"/>
      <path id="Path_18" data-name="Path 18" d="M50.717-28.443a9.841,9.841,0,0,0-5.159,1.969,11.335,11.335,0,0,0-1.493,1.439,9.75,9.75,0,0,0-1.824,3.473,9.3,9.3,0,0,0-.305,1.381,8.023,8.023,0,0,0-.1,1.8,7.737,7.737,0,0,0,.116,1.907,8.722,8.722,0,0,0,.327,1.417,9.344,9.344,0,0,0,4.7,5.646,9.914,9.914,0,0,0,3.48,1.039,10.891,10.891,0,0,0,2.8-.084,8.194,8.194,0,0,0,3.833-1.711,18.873,18.873,0,0,0,1.762-1.773,1.021,1.021,0,0,1,.251-.265c.044,0,.047.178.029,1.17A9.586,9.586,0,0,1,58.724-7.9a5.352,5.352,0,0,1-1.235,2.111A6.331,6.331,0,0,1,53.5-4.029a18.359,18.359,0,0,1-2.489,0,16.5,16.5,0,0,1-2.234-.4,12.547,12.547,0,0,1-2.579-.981c-.52-.254-.716-.36-1.344-.73l-.167-.1-.069.116a.731.731,0,0,0-.073.138c0,.015-.378.788-.839,1.722a9.053,9.053,0,0,0-.788,1.729c.156.105,1.3.7,1.591.832a13.887,13.887,0,0,0,1.926.745,18.578,18.578,0,0,0,5.3.923,18.3,18.3,0,0,0,5.573-.618c.182-.058.345-.105.36-.105a12.315,12.315,0,0,0,1.457-.618,8.429,8.429,0,0,0,4.469-6.013,15.456,15.456,0,0,0,.3-1.907c.058-.512.062-1.366.073-9.657l.011-9.09h-4.9v3.215l-.262-.291a9.472,9.472,0,0,0-4.625-3.019A10.457,10.457,0,0,0,50.717-28.443Zm3.193,4.16a6.421,6.421,0,0,1,3.807,2.013,5.755,5.755,0,0,1,1.308,2.579,4.464,4.464,0,0,1,.1,1.308A3.953,3.953,0,0,1,59-17.021a5.728,5.728,0,0,1-3.1,3.862,4.709,4.709,0,0,1-1.057.425,6.937,6.937,0,0,1-4.007-.007,5.613,5.613,0,0,1-2.376-1.41,5.773,5.773,0,0,1-1.733-3.982,7.072,7.072,0,0,1,.36-2.449,5.841,5.841,0,0,1,5.148-3.76A8.948,8.948,0,0,1,53.911-24.283Z" fill="#ff4800"/>
      <path id="Path_19" data-name="Path 19" d="M250.85-28.421c-.015.011-.025,4.966-.025,11.008V-6.43l3.862-.007,3.858-.011v-21.98l-3.836-.011C252.6-28.443,250.861-28.436,250.85-28.421Z"/>
      <path id="Path_20" data-name="Path 20" d="M106.266-28.352c-.865.047-1.537.094-1.726.124-.12.022-.494.08-.832.131A17.737,17.737,0,0,0,99.836-27c-.458.185-.945.392-.966.418a5.287,5.287,0,0,0,.214.7c.236.672.6,1.737.919,2.7.091.269.171.494.178.5a7.79,7.79,0,0,0,1.035-.389,19.055,19.055,0,0,1,2.271-.661,10.377,10.377,0,0,1,5.515.182,3.836,3.836,0,0,1,2.332,2.405,4.7,4.7,0,0,1,.262,1.573c.022.552.018.614-.036.592-.105-.04-.767-.24-1.1-.327-.294-.084-.487-.124-1.406-.3a17.709,17.709,0,0,0-3.589-.222,10.471,10.471,0,0,0-2.888.3,8.508,8.508,0,0,0-3.161,1.41,7.643,7.643,0,0,0-1.279,1.308,6.8,6.8,0,0,0-.934,2.042,7.291,7.291,0,0,0-.218,1.944,5.212,5.212,0,0,0,.1,1.29A6.259,6.259,0,0,0,97.6-9.929a7.016,7.016,0,0,0,5.664,3.68,9.963,9.963,0,0,0,5.49-.807A8.352,8.352,0,0,0,111.247-8.9a1.988,1.988,0,0,1,.291-.287,12.363,12.363,0,0,1,.033,1.29v1.29h4.872l-.015-6.8c-.011-4.7-.029-6.921-.058-7.175a14.747,14.747,0,0,0-.4-2.122,7.167,7.167,0,0,0-4.392-4.879,12.121,12.121,0,0,0-3.157-.712C107.934-28.341,106.637-28.374,106.266-28.352ZM107.712-16.4a14.6,14.6,0,0,1,2.332.331,14.713,14.713,0,0,1,1.537.447l.1.04v.788a4.342,4.342,0,0,1-.36,2.136,4.728,4.728,0,0,1-2.747,2.391,7.5,7.5,0,0,1-3.833.316,4.462,4.462,0,0,1-1.083-.349,3.012,3.012,0,0,1-1.689-1.809,2.2,2.2,0,0,1-.113-.966,2.2,2.2,0,0,1,.113-.934,2.71,2.71,0,0,1,.676-1.112A4.933,4.933,0,0,1,105.9-16.4,8.311,8.311,0,0,1,107.712-16.4Z" fill="#ff4800"/>
      <path id="Path_21" data-name="Path 21" d="M31.564-17.33l.007,10.717h4.868V-28.047H31.553Z" fill="#ff4800"/>
      <path id="Path_22" data-name="Path 22" d="M70.426-17.33V-6.612h4.886V-28.047H70.426Z" fill="#ff4800"/>
    </g>
  </g>
</svg>
